{"title":"Strangers on a Train 1951 720p BRRip x264 MP4 AAC-CC","uid":8868151,"size":2593064203,"categoryP":"video","categoryS":"hd___movies","magnet":"?xt=urn:btih:62f8c736e1790f2808bcf7cc8833e71d1d8fbca4&amp;dn=Strangers+on+a+Train+1951+720p+BRRip+x264+MP4+AAC-CC&amp;tr=udp%3A%2F%2Ftracker.openbittorrent.com%3A80&amp;tr=udp%3A%2F%2Fopen.demonii.com%3A1337&amp;tr=udp%3A%2F%2Ftracker.coppersurfer.tk%3A6969&amp;tr=udp%3A%2F%2Fexodus.desync.com%3A6969","seeders":0,"leechers":2,"uploader":"Caveman44","files":-1,"time":1377981145,"description":" &lt;a href=&quot;http://www.imdb.com/title/tt0044079/&quot; rel=&quot;nofollow&quot; target=&quot;_NEW&quot;&gt;http://www.imdb.com/title/tt0044079/&lt;/a&gt;\n\nSource: Strangers.on.a.Train.1951.720p.BluRay.X264-AMIABLE Thanks!\n\nSubs ( Subrip ) : Arabic, Brazilian, Danish, English, French, Greek, Hebrew, Icelandic, Italian, Norwegian, Polish, Portuguese, Swedish.\n\nSubs ( Vobsub ) : English, French, German, Italian, Japanese, Portuguese, Spanish.\n\nSample and Screens included.\n\nGeneral\nComplete name                            : Strangers on a Train 1951 720p BRRip x264 MP4 AAC-CC.mp4\nFormat                                   : MPEG-4\nFormat profile                           : Base Media\nCodec ID                                 : isom\nFile size                                : 2.38 GiB\nDuration                                 : 1h 40mn\nOverall bit rate mode                    : Variable\nOverall bit rate                         : 3 373 Kbps\nEncoded date                             : UTC 2013-06-23 16:12:13\nTagged date                              : UTC 2013-06-23 16:12:13\nWriting application                      : Yamb 2.1.0.0 \n\nVideo\nID                                       : 1\nFormat                                   : AVC\nFormat/Info                              : Advanced Video Codec\nFormat profile                           : &lt;a class=&quot;__cf_email__&quot; href=&quot;/cdn-cgi/l/email-protection&quot; data-cfemail=&quot;763e1f111e363a425847&quot;&gt;[email&amp;#160;protected]&lt;/a&gt;&lt;script cf-hash='f9e31' type=&quot;text/javascript&quot;&gt;\n/* &lt;![CDATA[ */!function(){try{var t=&quot;currentScript&quot;in document?document.currentScript:function(){for(var t=document.getElementsByTagName(&quot;script&quot;),e=t.length;e--;)if(t[e].getAttribute(&quot;cf-hash&quot;))return t[e]}();if(t&amp;&amp;t.previousSibling){var e,r,n,i,c=t.previousSibling,a=c.getAttribute(&quot;data-cfemail&quot;);if(a){for(e=&quot;&quot;,r=parseInt(a.substr(0,2),16),n=2;a.length-n;n+=2)i=parseInt(a.substr(n,2),16)^r,e+=String.fromCharCode(i);e=document.createTextNode(e),c.parentNode.replaceChild(e,c)}}}catch(u){}}();/* ]]&gt; */&lt;/script&gt;\nFormat settings, CABAC                   : Yes\nFormat settings, ReFrames                : 5 frames\nCodec ID                                 : avc1\nCodec ID/Info                            : Advanced Video Coding\nDuration                                 : 1h 40mn\nBit rate                                 : 3 267 Kbps\nMaximum bit rate                         : 16.1 Mbps\nWidth                                    : 976 pixels\nHeight                                   : 720 pixels\nDisplay aspect ratio                     : 4:3\nFrame rate mode                          : Variable\nFrame rate                               : 23.976 fps\nMinimum frame rate                       : 19.048 fps\nMaximum frame rate                       : 25.000 fps\nColor space                              : YUV\nChroma subsampling                       : 4:2:0\nBit depth                                : 8 bits\nScan type                                : Progressive\nBits/(Pixel*Frame)                       : 0.194\nStream size                              : 2.30 GiB (97%)\nWriting library                          : x264 core 112\nEncoding settings                        : cabac=1 // deblock=1:0:0 / analyse=0x3:0x113 / me=hex / subme=7 / psy=1 / psy_rd=1.00:0.00 // me_range=16 / chroma_me=1 / trellis=1 / 8x8dct=1 / cqm=0 / deadzone=21,11 / fast_pskip=1 / chroma_qp_offset=-2 / threads=3 / sliced_threads=0 / nr=0 / decimate=1 / interlaced=0 / constrained_intra=0 / bframes=5 / b_pyramid=2 / b_adapt=2 / b_bias=0 / direct=1 / weightb=1 / open_gop=0 / weightp=2 / keyint=240 / keyint_min=23 / scenecut=40 / intra_refresh=0 / rc_lookahead=50 / rc=abr / mbtree=1 / bitrate=3267 / ratetol=1.0 / qcomp=0.60 / qpmin=3 / qpmax=51 / qpstep=4 / ip_ratio=1.40 / aq=1:1.00\nEncoded date                             : UTC 2013-06-23 21:14:25\nTagged date                              : UTC 2013-06-23 16:14:58\nColor primaries                          : BT.709\nTransfer characteristics                 : BT.709\nMatrix coefficients                      : BT.709\n\nAudio\nID                                       : 2\nFormat                                   : AAC\nFormat/Info                              : Advanced Audio Codec\nFormat profile                           : LC\nCodec ID                                 : 40\nDuration                                 : 1h 40mn\nBit rate mode                            : Variable\nBit rate                                 : 107 Kbps\nMaximum bit rate                         : 135 Kbps\nChannel(s)                               : 1 channel\nChannel positions                        : Front: C\nSampling rate                            : 48.0 KHz\nCompression mode                         : Lossy\nDelay relative to video                  : 83ms\nStream size                              : 76.9 MiB (3%)\nLanguage                                 : English\nEncoded date                             : UTC 2013-06-23 16:14:35\nTagged date                              : UTC 2013-06-23 16:14:58\n\nEnjoy...\n\nRequested by varuneric \n\nComing soon: The Verdict, Harakiri, WALL-E, Man on Wire and more.","torrent":{"xt":"urn:btih:62f8c736e1790f2808bcf7cc8833e71d1d8fbca4","amp;dn":"Strangers+on+a+Train+1951+720p+BRRip+x264+MP4+AAC-CC","amp;tr":["udp%3A%2F%2Ftracker.openbittorrent.com%3A80","udp%3A%2F%2Fopen.demonii.com%3A1337","udp%3A%2F%2Ftracker.coppersurfer.tk%3A6969","udp%3A%2F%2Fexodus.desync.com%3A6969"],"infoHash":"62f8c736e1790f2808bcf7cc8833e71d1d8fbca4","infoHashBuffer":{"type":"Buffer","data":[98,248,199,54,225,121,15,40,8,188,247,204,136,51,231,29,29,143,188,164]},"announce":[],"urlList":[]}}